<svg xmlns="http://www.w3.org/2000/svg" width="346.755" height="341.165" viewBox="0 0 346.755 341.165">
  <g id="grid" transform="translate(-2.612)">
    <g id="Group_3" data-name="Group 3" transform="translate(2.612)">
      <g id="Group_2" data-name="Group 2">
        <path id="Path_2" data-name="Path 2" d="M96.653,0H13.061A10.449,10.449,0,0,0,2.612,10.449V94.041A10.449,10.449,0,0,0,13.061,104.49H96.653A10.449,10.449,0,0,0,107.1,94.041V10.449A10.449,10.449,0,0,0,96.653,0Z" transform="translate(-2.612)" fill="rgba(85,85,85,0.74)"/>
        <path id="Path_3" data-name="Path 3" d="M222.041,0H138.449A10.449,10.449,0,0,0,128,10.449V94.041a10.449,10.449,0,0,0,10.449,10.449h83.592A10.449,10.449,0,0,0,232.49,94.041V10.449A10.449,10.449,0,0,0,222.041,0Z" transform="translate(-6.868)" fill="rgba(85,85,85,0.74)"/>
        <path id="Path_4" data-name="Path 4" d="M96.653,125.388H13.061A10.449,10.449,0,0,0,2.612,135.837v83.592a10.449,10.449,0,0,0,10.449,10.449H96.653A10.449,10.449,0,0,0,107.1,219.429V135.837A10.449,10.449,0,0,0,96.653,125.388Z" transform="translate(-2.612 -9.465)" fill="rgba(85,85,85,0.74)"/>
        <path id="Path_5" data-name="Path 5" d="M222.041,125.388H138.449A10.449,10.449,0,0,0,128,135.837v83.592a10.449,10.449,0,0,0,10.449,10.449h83.592a10.449,10.449,0,0,0,10.449-10.449V135.837A10.449,10.449,0,0,0,222.041,125.388Z" transform="translate(-6.868 -9.465)" fill="rgba(85,85,85,0.74)"/>
        <path id="Path_6" data-name="Path 6" d="M347.429,0H263.837a10.449,10.449,0,0,0-10.449,10.449V94.041a10.449,10.449,0,0,0,10.449,10.449h83.592a10.449,10.449,0,0,0,10.449-10.449V10.449A10.449,10.449,0,0,0,347.429,0Z" transform="translate(-11.123)" fill="rgba(85,85,85,0.74)"/>
        <path id="Path_7" data-name="Path 7" d="M347.429,125.388H263.837a10.449,10.449,0,0,0-10.449,10.449v83.592a10.449,10.449,0,0,0,10.449,10.449h83.592a10.449,10.449,0,0,0,10.449-10.449V135.837A10.449,10.449,0,0,0,347.429,125.388Z" transform="translate(-11.123 -9.465)" fill="rgba(85,85,85,0.74)"/>
        <path id="Path_8" data-name="Path 8" d="M96.653,256H13.061A10.449,10.449,0,0,0,2.612,266.449v83.592A10.449,10.449,0,0,0,13.061,360.49H96.653A10.449,10.449,0,0,0,107.1,350.041V266.449A10.449,10.449,0,0,0,96.653,256Z" transform="translate(-2.612 -19.324)" fill="rgba(85,85,85,0.74)"/>
        <path id="Path_9" data-name="Path 9" d="M222.041,256H138.449A10.449,10.449,0,0,0,128,266.449v83.592a10.449,10.449,0,0,0,10.449,10.449h83.592a10.449,10.449,0,0,0,10.449-10.449V266.449A10.449,10.449,0,0,0,222.041,256Z" transform="translate(-6.868 -19.324)" fill="rgba(85,85,85,0.74)"/>
        <path id="Path_10" data-name="Path 10" d="M347.429,256H263.837a10.449,10.449,0,0,0-10.449,10.449v83.592a10.449,10.449,0,0,0,10.449,10.449h83.592a10.449,10.449,0,0,0,10.449-10.449V266.449A10.449,10.449,0,0,0,347.429,256Z" transform="translate(-11.123 -19.324)" fill="rgba(85,85,85,0.74)"/>
      </g>
    </g>
  </g>
</svg>
